<?xml version="1.0" standalone="no"?>
<!DOCTYPE svg PUBLIC "-//W3C//DTD SVG 20010904//EN"
 "http://www.w3.org/TR/2001/REC-SVG-20010904/DTD/svg10.dtd">
<svg version="1.0" xmlns="http://www.w3.org/2000/svg"
 width="600.000000pt" height="1200.000000pt" viewBox="0 0 600.000000 1200.000000"
 preserveAspectRatio="xMidYMid meet">
<metadata>
Created by potrace 1.16, written by Peter Selinger 2001-2019
</metadata>
<g transform="translate(0.000000,1200.000000) scale(0.100000,-0.100000)"
fill="#000000" stroke="none">
<path d="M406 11988 c-3 -7 -7 -35 -10 -62 -19 -161 -172 -308 -335 -323 l-61
-6 0 -5597 0 -5597 61 -6 c167 -15 315 -162 337 -333 l7 -59 193 -3 c168 -2
192 -1 192 13 0 37 41 95 82 116 87 44 183 8 215 -82 l18 -49 181 0 182 0 6
31 c27 137 224 162 285 36 12 -24 21 -49 21 -55 0 -9 49 -12 184 -12 l184 0 7
37 c9 48 60 99 108 108 84 16 167 -31 187 -106 l11 -39 198 0 199 0 7 37 c9
48 60 99 108 108 84 16 167 -31 184 -103 l9 -37 179 -3 180 -2 18 50 c50 141
264 128 293 -19 l6 -31 183 0 183 0 5 30 c16 75 87 125 167 118 65 -7 106 -38
127 -99 l18 -49 196 0 197 0 6 31 c20 101 137 149 231 96 31 -18 44 -34 60
-75 l20 -52 181 0 181 0 6 59 c15 168 162 317 332 339 l60 7 0 5595 0 5595
-60 7 c-170 22 -317 171 -332 339 l-6 59 -181 0 -181 0 -20 -52 c-16 -41 -29
-57 -60 -75 -94 -53 -211 -5 -231 96 l-7 31 -196 0 -196 0 -18 -49 c-21 -61
-62 -92 -127 -99 -80 -7 -151 43 -167 118 l-5 30 -183 0 -182 0 -7 -31 c-20
-103 -137 -150 -232 -94 -35 20 -47 35 -61 75 l-18 50 -180 -2 -179 -3 -9 -37
c-17 -72 -100 -119 -184 -103 -48 9 -99 60 -108 108 l-7 37 -199 0 -198 0 -11
-39 c-20 -75 -103 -122 -187 -106 -48 9 -99 60 -108 108 l-7 37 -184 0 c-135
0 -184 -3 -184 -12 0 -6 -9 -31 -21 -55 -61 -126 -258 -101 -285 36 l-6 31
-182 0 -181 0 -18 -49 c-32 -90 -128 -126 -215 -82 -41 21 -82 79 -82 116 0
13 -26 15 -190 15 -144 0 -192 -3 -194 -12z"/>
</g>
</svg>
